<svg xmlns="http://www.w3.org/2000/svg" xmlns:xlink="http://www.w3.org/1999/xlink" preserveAspectRatio="xMidYMid" width="18.156" height="18.156" viewBox="0 0 18.156 18.156">
  <defs>
    <style>
      .cls-1 {
        fill: #fff;
        opacity: 0.7;
        fill-rule: evenodd;
      }
    </style>
  </defs>
  <path d="M11.890,9.062 L17.547,14.719 C18.328,15.500 18.328,16.766 17.547,17.547 C16.766,18.328 15.500,18.328 14.719,17.547 L9.062,11.890 L3.405,17.547 C2.624,18.328 1.358,18.328 0.577,17.547 C-0.204,16.766 -0.204,15.500 0.577,14.719 L6.234,9.062 L0.577,3.405 C-0.204,2.624 -0.204,1.357 0.577,0.577 C1.358,-0.205 2.624,-0.205 3.405,0.577 L9.062,6.234 L14.719,0.577 C15.500,-0.205 16.766,-0.205 17.547,0.577 C18.328,1.357 18.328,2.624 17.547,3.405 L11.890,9.062 Z" class="cls-1"/>
</svg>
