<svg xmlns="http://www.w3.org/2000/svg" xmlns:xlink="http://www.w3.org/1999/xlink" preserveAspectRatio="xMidYMid" width="24" height="22" viewBox="0 0 24 22">
  <defs>
    <style>
      .cls-1 {
        fill: #fff;
        fill-rule: evenodd;
      }
    </style>
  </defs>
  <path d="M22.000,13.000 L2.000,13.000 C0.895,13.000 -0.000,12.104 -0.000,11.000 C-0.000,9.895 0.895,9.000 2.000,9.000 L22.000,9.000 C23.105,9.000 24.000,9.895 24.000,11.000 C24.000,12.104 23.105,13.000 22.000,13.000 ZM22.000,4.000 L2.000,4.000 C0.895,4.000 -0.000,3.104 -0.000,1.999 C-0.000,0.895 0.895,-0.000 2.000,-0.000 L22.000,-0.000 C23.105,-0.000 24.000,0.895 24.000,1.999 C24.000,3.104 23.105,4.000 22.000,4.000 ZM2.000,17.999 L22.000,17.999 C23.105,17.999 24.000,18.895 24.000,20.000 C24.000,21.104 23.105,22.000 22.000,22.000 L2.000,22.000 C0.895,22.000 -0.000,21.104 -0.000,20.000 C-0.000,18.895 0.895,17.999 2.000,17.999 Z" class="cls-1"/>
</svg>
