<svg xmlns="http://www.w3.org/2000/svg" xmlns:xlink="http://www.w3.org/1999/xlink" preserveAspectRatio="xMidYMid" width="18.156" height="18.15" viewBox="0 0 18.156 18.15">
  <defs>
    <style>
      .cls-1 {
        fill: #e35028;
        opacity: 0.7;
        fill-rule: evenodd;
      }
    </style>
  </defs>
  <path d="M11.890,9.059 L17.547,14.716 C18.328,15.497 18.328,16.764 17.547,17.545 C16.766,18.326 15.500,18.326 14.719,17.545 L9.062,11.888 L3.405,17.545 C2.624,18.326 1.358,18.326 0.577,17.545 C-0.204,16.764 -0.204,15.497 0.577,14.716 L6.234,9.059 L0.577,3.402 C-0.204,2.622 -0.204,1.355 0.577,0.574 C1.358,-0.207 2.624,-0.207 3.405,0.574 L9.062,6.231 L14.719,0.574 C15.500,-0.207 16.766,-0.207 17.547,0.574 C18.328,1.355 18.328,2.622 17.547,3.402 L11.890,9.059 Z" class="cls-1"/>
</svg>
